<svg xmlns="http://www.w3.org/2000/svg" viewBox="0 0 43.917 43.916" width="43.917" height="43.916">
    <path
        fill="#909090"
        d="M12.745 10.14h-1.563V7.397h1.524c.987 0 1.603.474 1.603 1.358v.025c0 .77-.579 1.36-1.564 1.36zm11.231-.014v-.025c0-1.59-1.088-2.704-2.703-2.704h-1.525v5.408h1.525c1.615 0 2.703-1.089 2.703-2.679zM39.394 5v33.916a5 5 0 0 1-5 5H9.522a5 5 0 0 1-5-5V5a5 5 0 0 1 5-5h24.871a5.001 5.001 0 0 1 5.001 5zm-21.622 8.6a.98.98 0 0 0 .987.987h2.512c2.819 0 4.769-1.961 4.769-4.486v-.025c0-2.525-1.947-4.46-4.769-4.46h-2.512a.98.98 0 0 0-.987.987V13.6zm-8.564.076c0 .552.436.987.987.987a.979.979 0 0 0 .986-.987v-1.78h1.5c2.012 0 3.626-1.076 3.626-3.152v-.027c0-1.832-1.294-3.101-3.435-3.101h-2.678a.979.979 0 0 0-.987.987l.001 7.073zm25.5 22.625a2 2 0 0 0-2-2h-21.5a2 2 0 0 0 0 4h21.5a2 2 0 0 0 2-2zm0-7.5a2 2 0 0 0-2-2h-21.5a2 2 0 0 0 0 4h21.5a2 2 0 0 0 2-2zm0-7.5a2 2 0 0 0-2-2h-14a2 2 0 0 0 0 4h14a2 2 0 0 0 2-2zm0-14.788a.89.89 0 0 0-.896-.897h-5.024a.977.977 0 0 0-.985.987v7.073c0 .552.436.987.985.987a.979.979 0 0 0 .986-.987v-2.562h3.46c.5 0 .897-.397.897-.897s-.397-.897-.897-.897h-3.46V7.41h4.037a.892.892 0 0 0 .897-.897z"/>
</svg>
